<svg id="Layer_1" data-name="Layer 1" xmlns="http://www.w3.org/2000/svg" viewBox="0 0 379.47 245.55"><defs><style>.cls-1{fill:#fff;}.cls-2{fill:#92d050;}</style></defs><title>logo-inverse</title><g id="Layer_2" data-name="Layer 2"><g id="Layer_1-2" data-name="Layer 1-2"><path class="cls-1" d="M106.32,149.33l47.33,47.33H33.47V149.33ZM230.14,0V47.33h-72L110.84,0Z"/><path class="cls-2" d="M230.14,50.33v71.73h-36.9L182.8,111.62V50.33Z"/><path class="cls-2" d="M379.47,0H233.14V47.33h99v102H220.51l11.75,11.75,33.46,33.46,2.12,2.12H379.47Z"/><path class="cls-1" d="M263.6,196.66H196.66L182.8,182.8l-33.47-33.47-102-102L0,0H66.94l47.33,47.33,68.53,68.53,33.47,33.47,13.87,13.87ZM73.42,245.45v-25.9a1.87,1.87,0,0,0-.28-1,2.57,2.57,0,0,0-.69-.78,2.65,2.65,0,0,0-.87-.48,2.61,2.61,0,0,0-.83-.17h-.41a3.35,3.35,0,0,0-1.45.37,2.48,2.48,0,0,0-1.17,1.43l-1.38,2.94c-.34.74-.78,1.67-1.31,2.79s-1.2,2.49-2,4.14l-2.76,5.77q-1.59,3.31-3.66,7.68A7.7,7.7,0,0,1,55,244.62a2.85,2.85,0,0,1-2.09.88h-.74a3.5,3.5,0,0,1-2.3-.79,7.47,7.47,0,0,1-1.61-2.43L37.22,219a6.31,6.31,0,0,0-.6-1,4.16,4.16,0,0,0-.74-.65,2.56,2.56,0,0,0-1.19-.23h-.55a2,2,0,0,0-1,.23,3.56,3.56,0,0,0-.8.6,3.78,3.78,0,0,0-.62.81,2.28,2.28,0,0,0-.3.8v25.9H28V219.37a4.59,4.59,0,0,1,.49-2.09,6.45,6.45,0,0,1,1.31-1.8,6.7,6.7,0,0,1,1.91-1.29,6.89,6.89,0,0,1,2.27-.57l.74-.05a5.87,5.87,0,0,1,2.17.42,3.35,3.35,0,0,1,1,.5,8,8,0,0,1,1,.83,7.18,7.18,0,0,1,.81.94,4.43,4.43,0,0,1,.48.85,2.3,2.3,0,0,1,.27.6l11,23.19a3.84,3.84,0,0,0,.33.59c.15.25.32.37.5.37h.28a1,1,0,0,0,.44-.41c.13-.22.22-.35.25-.42v-.13l11.09-23.19a15,15,0,0,1,1.17-1.91,5.15,5.15,0,0,1,1.77-1.54,5.7,5.7,0,0,1,1.32-.5,5.8,5.8,0,0,1,1.49-.19l.74.05a4.66,4.66,0,0,1,2.16.53,7.48,7.48,0,0,1,2,1.33,6.93,6.93,0,0,1,1.36,1.82,4.71,4.71,0,0,1,.58,2v26.17Zm27.23.05a12.68,12.68,0,0,1-5.08-1,13.23,13.23,0,0,1-4.14-2.8,13.48,13.48,0,0,1-2.81-4.15,12.65,12.65,0,0,1-1-5.08v-5.75a12.56,12.56,0,0,1,1-5.06,13.25,13.25,0,0,1,6.95-7,12.68,12.68,0,0,1,5.08-1H124.3a12.75,12.75,0,0,1,5.1,1,13.11,13.11,0,0,1,7,7,12.56,12.56,0,0,1,1,5.06v5.75a12.68,12.68,0,0,1-1,5.08,13.62,13.62,0,0,1-2.8,4.15,13.36,13.36,0,0,1-4.17,2.8,12.75,12.75,0,0,1-5.1,1Zm-9.57-18.82v5.75a9.08,9.08,0,0,0,.76,3.7A9.84,9.84,0,0,0,97,241.24a9.08,9.08,0,0,0,3.7.76h23.6a9.14,9.14,0,0,0,3.72-.76,9.79,9.79,0,0,0,3.06-2.07,9.54,9.54,0,0,0,2.07-3,9.08,9.08,0,0,0,.76-3.7v-5.75a9.08,9.08,0,0,0-.76-3.7,9.78,9.78,0,0,0-5.13-5.11,9.31,9.31,0,0,0-3.72-.76H100.65a9.08,9.08,0,0,0-3.7.76A9.85,9.85,0,0,0,91.84,223a9.29,9.29,0,0,0-.76,3.68Zm55.3-13.06h31.23a12.68,12.68,0,0,1,5.08,1,13.2,13.2,0,0,1,4.14,2.83,13.68,13.68,0,0,1,2.81,4.17,12.27,12.27,0,0,1,1,5v5.75a12.65,12.65,0,0,1-1,5.08,13.25,13.25,0,0,1-2.83,4.15,13.67,13.67,0,0,1-4.16,2.8,12.61,12.61,0,0,1-5,1H146.38Zm40.8,13a9.19,9.19,0,0,0-.76-3.66,9.88,9.88,0,0,0-2.07-3,10.18,10.18,0,0,0-3.06-2,9.29,9.29,0,0,0-3.68-.76H149.87V242H177.7a8.86,8.86,0,0,0,3.66-.76,9.54,9.54,0,0,0,3-2.07,10.1,10.1,0,0,0,2-3,9.08,9.08,0,0,0,.76-3.7ZM209,245.5a12.68,12.68,0,0,1-5.08-1,13.11,13.11,0,0,1-7-7,12.75,12.75,0,0,1-1-5.1V213.62h3.49v18.77a9.29,9.29,0,0,0,.76,3.68,10.21,10.21,0,0,0,2.05,3.06,9.94,9.94,0,0,0,3,2.09,8.73,8.73,0,0,0,3.66.78h23.64V213.62H236V245.5Zm41.61-31.88v18.77a9.42,9.42,0,0,0,.74,3.74,9,9,0,0,0,2.07,3,10,10,0,0,0,3.06,2.09,9.08,9.08,0,0,0,3.7.76H287v3.5H260.18a12.68,12.68,0,0,1-5.08-1,13.22,13.22,0,0,1-6.95-6.95,12.51,12.51,0,0,1-1-5.12V213.62Zm48.81,31.88a10.46,10.46,0,0,1-5.66-1.59A9.56,9.56,0,0,1,290,232a9.84,9.84,0,0,1,2.19-3.08,10.19,10.19,0,0,1,3.19-2.07,9.75,9.75,0,0,1,3.84-.76h27.42v-2.16a6.27,6.27,0,0,0-.55-2.63,6.49,6.49,0,0,0-1.5-2.13,7.73,7.73,0,0,0-2.16-1.45,6.3,6.3,0,0,0-2.6-.56H296.7v-3.49h23.14a10.2,10.2,0,0,1,7.27,3,11.36,11.36,0,0,1,2.21,3.27,9.66,9.66,0,0,1,.83,4v21.66Zm-3.77-14.86a6.46,6.46,0,0,0-2.17,2.21,6,6,0,0,0-.25,5.4,6.43,6.43,0,0,0,1.43,2,6.8,6.8,0,0,0,2.07,1.31,6.47,6.47,0,0,0,2.5.48h27.42V229.53H299.42a6.78,6.78,0,0,0-2,.3A7.27,7.27,0,0,0,295.65,230.64Zm46.22,14.86V226.68a12.56,12.56,0,0,1,1-5.06,13.23,13.23,0,0,1,2.81-4.16,13.43,13.43,0,0,1,4.14-2.81,12.65,12.65,0,0,1,5.08-1h23.64v3.49h-23.6a9.08,9.08,0,0,0-3.7.76,9.88,9.88,0,0,0-3,2.07,10,10,0,0,0-2.07,3,9.08,9.08,0,0,0-.76,3.7V245.5Z"/></g></g></svg>