<svg xmlns="http://www.w3.org/2000/svg" viewBox="0 0 350.61 31.97">
  <g data-name="Layer 2">
    <g data-name="Layer 1">
      <path d="M45.45 31.88V6a1.88 1.88 0 0 0-.28-1 2.59 2.59 0 0 0-.69-.78 3 3 0 0 0-.87-.49 2.8 2.8 0 0 0-.83-.16h-.41a3.39 3.39 0 0 0-1.45.37 2.51 2.51 0 0 0-1.18 1.43q-.18.41-1.38 2.94c-.33.74-.77 1.66-1.31 2.78s-1.19 2.5-2 4.14L32.31 21l-3.65 7.68a7.77 7.77 0 0 1-1.59 2.39 2.92 2.92 0 0 1-2.09.87h-.74a3.51 3.51 0 0 1-2.3-.78 7.38 7.38 0 0 1-1.61-2.44L9.25 5.43a6.11 6.11 0 0 0-.6-1 4.32 4.32 0 0 0-.74-.65 2.71 2.71 0 0 0-1.19-.23h-.56a2 2 0 0 0-.94.23 3.56 3.56 0 0 0-.8.6 4 4 0 0 0-.63.8A2.42 2.42 0 0 0 3.5 6v25.9H0V5.8a4.75 4.75 0 0 1 .48-2.1 6.44 6.44 0 0 1 1.31-1.79A6.56 6.56 0 0 1 3.7.62 6.83 6.83 0 0 1 6 .05h.74a5.26 5.26 0 0 1 1.15.07 7.14 7.14 0 0 1 1 .29 3.45 3.45 0 0 1 1 .51 7.77 7.77 0 0 1 1 .83 7.67 7.67 0 0 1 .8.94 4.38 4.38 0 0 1 .49.85 2.3 2.3 0 0 1 .27.6l11 23.18a3.64 3.64 0 0 0 .32.6c.16.25.33.37.51.37h.28a1 1 0 0 0 .43-.41l.26-.42v-.14L36.48 4.14a14.07 14.07 0 0 1 1.17-1.91A5.12 5.12 0 0 1 39.42.69a6.61 6.61 0 0 1 1.31-.51 6.16 6.16 0 0 1 1.5-.18l.77.05a4.73 4.73 0 0 1 2.17.53A7.36 7.36 0 0 1 47 1.91a7.1 7.1 0 0 1 1.36 1.82 4.74 4.74 0 0 1 .57 2v26.15zM72.68 31.92a12.54 12.54 0 0 1-5.08-1 13.31 13.31 0 0 1-6.95-6.95 12.54 12.54 0 0 1-1-5.08v-5.78a12.58 12.58 0 0 1 1-5.06 13.26 13.26 0 0 1 6.95-7 12.54 12.54 0 0 1 5.08-1h23.64a12.75 12.75 0 0 1 5.11 1 13.2 13.2 0 0 1 7 7 12.58 12.58 0 0 1 1 5.06v5.75a12.54 12.54 0 0 1-1 5.08 13.26 13.26 0 0 1-7 7 12.75 12.75 0 0 1-5.11 1zm-9.57-18.81v5.75a9 9 0 0 0 .76 3.7 10.11 10.11 0 0 0 2.07 3 10 10 0 0 0 3 2.07 9.17 9.17 0 0 0 3.7.76h23.68a9.39 9.39 0 0 0 3.73-.76 9.8 9.8 0 0 0 5.13-5.11 9.17 9.17 0 0 0 .76-3.7v-5.71a9.17 9.17 0 0 0-.76-3.7 9.8 9.8 0 0 0-5.13-5.11 9.22 9.22 0 0 0-3.73-.76H72.68A9 9 0 0 0 69 4.3a10 10 0 0 0-3 2.07 10.11 10.11 0 0 0-2.07 3 9 9 0 0 0-.82 3.74zM118.4.05h31.24a12.54 12.54 0 0 1 5.08 1 13.08 13.08 0 0 1 4.14 2.83 13.69 13.69 0 0 1 2.81 4.16 12.45 12.45 0 0 1 1 5v5.75a12.54 12.54 0 0 1-1 5.08 13.25 13.25 0 0 1-2.83 4.14 13.74 13.74 0 0 1-4.17 2.81 12.4 12.4 0 0 1-5 1H118.4zm40.8 13a9.08 9.08 0 0 0-.75-3.66 9.74 9.74 0 0 0-2.07-3 10.21 10.21 0 0 0-3.06-2 9.12 9.12 0 0 0-3.68-.76H121.9v24.8h27.83a9.09 9.09 0 0 0 3.66-.76 9.74 9.74 0 0 0 3-2.07 10.24 10.24 0 0 0 2-3 9.17 9.17 0 0 0 .75-3.7zM181 31.92a12.5 12.5 0 0 1-5.08-1 13.26 13.26 0 0 1-7-7 12.72 12.72 0 0 1-1-5.11V.05h3.49v18.76a9.05 9.05 0 0 0 .76 3.68 10 10 0 0 0 2.05 3.06 9.82 9.82 0 0 0 3 2.1 8.78 8.78 0 0 0 3.66.78h23.64V.05h3.5v31.87zM222.64.05v18.76a9.3 9.3 0 0 0 .74 3.75 9.11 9.11 0 0 0 2.06 3 10 10 0 0 0 3.06 2.09 9.22 9.22 0 0 0 3.71.76h26.86v3.49h-26.86a12.59 12.59 0 0 1-5.09-1 13.4 13.4 0 0 1-4.12-2.84 13.24 13.24 0 0 1-2.78-4.12 12.68 12.68 0 0 1-1-5.13V.05zM271.44 31.92a10.46 10.46 0 0 1-5.65-1.58 9.5 9.5 0 0 1-3.73-4.3 9.35 9.35 0 0 1 0-7.66 9.79 9.79 0 0 1 2.18-3.09 10.62 10.62 0 0 1 3.2-2.07 10 10 0 0 1 3.84-.75h27.42V10.3a6.36 6.36 0 0 0-.56-2.62 6.49 6.49 0 0 0-1.49-2.14 8 8 0 0 0-2.16-1.45 6.38 6.38 0 0 0-2.6-.55h-23.16V.05h23.14a10.18 10.18 0 0 1 7.27 3 10.87 10.87 0 0 1 2.2 3.27 9.51 9.51 0 0 1 .83 4V32zm-3.77-14.85a6.4 6.4 0 0 0-2.16 2.2 5.73 5.73 0 0 0-.78 2.95 5.6 5.6 0 0 0 .53 2.46 6.28 6.28 0 0 0 1.42 1.95 7 7 0 0 0 2.07 1.37 6.6 6.6 0 0 0 2.51.48h27.42V16h-27.24a6.77 6.77 0 0 0-2 .3 7 7 0 0 0-1.77.77zM313.9 31.92V13.11a12.59 12.59 0 0 1 1-5.06 13.19 13.19 0 0 1 6.94-7 12.59 12.59 0 0 1 5.09-1h23.64v3.49H327a9.06 9.06 0 0 0-3.71.76 10 10 0 0 0-3 2.07 9.76 9.76 0 0 0-2.07 3 9 9 0 0 0-.76 3.7v18.85z"/>
    </g>
  </g>
</svg>
