<svg xmlns="http://www.w3.org/2000/svg" viewBox="0 0 1049.27 196.66"><defs><style>.cls-1{fill:#92d050;}</style></defs><title>Asset 4torc32</title><g id="Layer_2" data-name="Layer 2"><g id="Layer_1-2" data-name="Layer 1"><polygon points="106.32 149.33 153.65 196.66 33.47 196.66 33.47 149.33 106.32 149.33"/><polygon points="230.14 0 230.14 47.33 158.17 47.33 110.84 0 230.14 0"/><polygon class="cls-1" points="230.14 50.33 230.14 122.06 193.24 122.06 182.8 111.62 182.8 50.33 230.14 50.33"/><polygon class="cls-1" points="379.47 0 379.47 0 233.14 0 233.14 47.33 332.14 47.33 332.14 149.33 220.51 149.33 232.26 161.08 265.72 194.54 267.84 196.66 332.14 196.66 332.14 196.66 379.47 196.66 379.47 0 379.47 0"/><polygon points="263.6 196.66 196.66 196.66 182.8 182.8 149.33 149.33 47.33 47.33 0 0 66.94 0 114.27 47.33 182.8 115.86 216.27 149.33 230.14 163.2 263.6 196.66"/><path d="M497,127.1V80.23a3.55,3.55,0,0,0-.5-1.84A5.28,5.28,0,0,0,495.25,77a5.48,5.48,0,0,0-1.58-.87,4.53,4.53,0,0,0-1.5-.3h-.75a6.06,6.06,0,0,0-2.62.67,4.54,4.54,0,0,0-2.13,2.58q-.33.75-2.49,5.33-.93,2-2.38,5l-3.58,7.49q-2.12,4.45-5,10.45t-6.62,13.9a14.24,14.24,0,0,1-2.87,4.33,5.28,5.28,0,0,1-3.79,1.58h-1.33a6.37,6.37,0,0,1-4.16-1.42,13.34,13.34,0,0,1-2.92-4.41L431.48,79.23a11.16,11.16,0,0,0-1.08-1.83,8,8,0,0,0-1.33-1.17,4.85,4.85,0,0,0-2.17-.42h-1a3.61,3.61,0,0,0-1.71.42,6.22,6.22,0,0,0-1.45,1.08,7.14,7.14,0,0,0-1.13,1.46,4.11,4.11,0,0,0-.54,1.46V127.1h-6.32V79.89a8.52,8.52,0,0,1,.87-3.78A11.44,11.44,0,0,1,418,72.86a11.77,11.77,0,0,1,3.46-2.33,12.08,12.08,0,0,1,4.12-1l1.33-.09a9.89,9.89,0,0,1,2.12.21,15.49,15.49,0,0,1,1.88.54,6.35,6.35,0,0,1,1.87.92,12.71,12.71,0,0,1,1.79,1.5A13.52,13.52,0,0,1,436,74.28a7.36,7.36,0,0,1,.87,1.53,4,4,0,0,1,.5,1.09l20,42a7.6,7.6,0,0,0,.58,1.08,1.16,1.16,0,0,0,.92.66h.5a1.84,1.84,0,0,0,.79-.75c.25-.38.4-.63.46-.75l.08-.24,20.06-42a26.41,26.41,0,0,1,2.13-3.46,9.12,9.12,0,0,1,3.2-2.79,10.32,10.32,0,0,1,2.37-.91,10.87,10.87,0,0,1,2.71-.34l1.33.09a8.61,8.61,0,0,1,3.91,1,13.37,13.37,0,0,1,3.42,2.41,12.89,12.89,0,0,1,2.45,3.29,8.47,8.47,0,0,1,1,3.58V127.1Z"/><path d="M546.28,127.18a22.69,22.69,0,0,1-9.2-1.87,24,24,0,0,1-12.57-12.58,22.64,22.64,0,0,1-1.87-9.19V93.13A22.81,22.81,0,0,1,524.51,84a23.92,23.92,0,0,1,12.57-12.61,22.69,22.69,0,0,1,9.2-1.87h42.79a23,23,0,0,1,9.24,1.87A23.72,23.72,0,0,1,610.92,84a22.82,22.82,0,0,1,1.88,9.16v10.41a22.65,22.65,0,0,1-1.88,9.19,24.34,24.34,0,0,1-5.07,7.5,24,24,0,0,1-7.54,5.08,23,23,0,0,1-9.24,1.87ZM529,93.13v10.41a16.4,16.4,0,0,0,1.38,6.7,17.77,17.77,0,0,0,3.74,5.49,18.14,18.14,0,0,0,5.5,3.75,16.52,16.52,0,0,0,6.7,1.37h42.79a16.82,16.82,0,0,0,6.74-1.37,17.82,17.82,0,0,0,9.29-9.24,16.56,16.56,0,0,0,1.37-6.7V93.13a16.56,16.56,0,0,0-1.37-6.7,18.14,18.14,0,0,0-3.75-5.5,17.64,17.64,0,0,0-5.54-3.74,16.66,16.66,0,0,0-6.74-1.38H546.28a16.36,16.36,0,0,0-6.7,1.38,17.77,17.77,0,0,0-9.24,9.24A16.4,16.4,0,0,0,529,93.13Z"/><path d="M629,69.49h56.53a22.64,22.64,0,0,1,9.19,1.87,24,24,0,0,1,7.5,5.12A25,25,0,0,1,707.33,84a22.69,22.69,0,0,1,1.87,9.12v10.41a22.81,22.81,0,0,1-1.87,9.19,24,24,0,0,1-5.12,7.5,24.73,24.73,0,0,1-7.54,5.08,22.51,22.51,0,0,1-9.11,1.87H629ZM702.87,93a16.3,16.3,0,0,0-1.37-6.61,17.48,17.48,0,0,0-3.75-5.46,18.13,18.13,0,0,0-5.53-3.7,16.49,16.49,0,0,0-6.66-1.38h-50.2v45h50.36a16.35,16.35,0,0,0,6.62-1.37,17.44,17.44,0,0,0,5.45-3.75,18.21,18.21,0,0,0,3.71-5.49,16.56,16.56,0,0,0,1.37-6.7Z"/><path d="M742.33,127.18a22.73,22.73,0,0,1-9.2-1.87,23.89,23.89,0,0,1-12.57-12.62,23,23,0,0,1-1.87-9.24v-34H725v34a16.58,16.58,0,0,0,1.37,6.66,17.94,17.94,0,0,0,9.16,9.33,15.9,15.9,0,0,0,6.62,1.41H785V69.49h6.32v57.69Z"/><path d="M817.67,69.49v34a17.07,17.07,0,0,0,1.34,6.79,16.32,16.32,0,0,0,3.74,5.45,18.15,18.15,0,0,0,5.54,3.79,16.52,16.52,0,0,0,6.7,1.37h48.62v6.33H835a22.69,22.69,0,0,1-9.2-1.87,24.33,24.33,0,0,1-7.53-5.12,24.07,24.07,0,0,1-5-7.46,22.87,22.87,0,0,1-1.87-9.28v-34Z"/><path d="M906,127.18a18.92,18.92,0,0,1-10.24-2.87,17.18,17.18,0,0,1-6.74-7.79,16.24,16.24,0,0,1-1.5-6.91,16.65,16.65,0,0,1,1.46-7,18,18,0,0,1,3.95-5.58,19,19,0,0,1,5.79-3.74A17.77,17.77,0,0,1,905.67,92h49.62V88.05a11.65,11.65,0,0,0-1-4.74,12,12,0,0,0-2.71-3.87,14,14,0,0,0-3.91-2.63,11.37,11.37,0,0,0-4.71-1H901.09V69.49H943a18.3,18.3,0,0,1,7.25,1.45,18.54,18.54,0,0,1,5.91,4,19.86,19.86,0,0,1,4,5.91,17.53,17.53,0,0,1,1.5,7.2v39.21Zm-6.82-26.89a11.7,11.7,0,0,0-3.92,4,10.35,10.35,0,0,0-1.41,5.32,10.49,10.49,0,0,0,.95,4.46,11.25,11.25,0,0,0,2.59,3.54,12.59,12.59,0,0,0,3.74,2.37,11.88,11.88,0,0,0,4.54.87h49.62V98.29H906a12.28,12.28,0,0,0-3.66.54A12.54,12.54,0,0,0,899.18,100.29Z"/><path d="M982.84,127.18V93.13A22.81,22.81,0,0,1,984.71,84a23.92,23.92,0,0,1,12.57-12.61,22.73,22.73,0,0,1,9.2-1.87h42.79v6.32h-42.79a16.4,16.4,0,0,0-6.7,1.38,17.77,17.77,0,0,0-5.49,3.74,18,18,0,0,0-3.75,5.5,16.39,16.39,0,0,0-1.37,6.7v34.05Z"/></g></g></svg>