<svg xmlns="http://www.w3.org/2000/svg" viewBox="0 0 1495.17 196.66"><defs><style>.cls-1{fill:#92d050;}</style></defs><title>Asset 4torc32</title><g id="Layer_2" data-name="Layer 2"><g id="Layer_1-2" data-name="Layer 1"><polygon points="106.32 149.33 153.65 196.66 33.47 196.66 33.47 149.33 106.32 149.33"/><polygon points="230.14 0 230.14 47.33 158.17 47.33 110.84 0 230.14 0"/><polygon class="cls-1" points="230.14 50.33 230.14 122.06 193.24 122.06 182.8 111.62 182.8 50.33 230.14 50.33"/><polygon class="cls-1" points="379.47 0 379.47 0 233.14 0 233.14 47.33 332.14 47.33 332.14 149.33 220.51 149.33 232.26 161.08 265.72 194.54 267.84 196.66 332.14 196.66 332.14 196.66 379.47 196.66 379.47 0 379.47 0"/><polygon points="263.6 196.66 196.66 196.66 182.8 182.8 149.33 149.33 47.33 47.33 0 0 66.94 0 114.27 47.33 182.8 115.86 216.27 149.33 230.14 163.2 263.6 196.66"/><path d="M547.41,196.38V116a6,6,0,0,0-.86-3.15,8.92,8.92,0,0,0-2.14-2.43,10,10,0,0,0-2.72-1.5,8,8,0,0,0-2.57-.5h-1.28a10.35,10.35,0,0,0-4.5,1.15,7.74,7.74,0,0,0-3.65,4.42q-.57,1.29-4.28,9.15c-1,2.28-2.41,5.17-4.08,8.64s-3.71,7.76-6.14,12.86-5.28,11.07-8.57,17.93-7.07,14.81-11.36,23.86a24.31,24.31,0,0,1-4.93,7.43,9,9,0,0,1-6.5,2.71h-2.28a10.89,10.89,0,0,1-7.15-2.43,23,23,0,0,1-5-7.57L435,114.23a18.35,18.35,0,0,0-1.85-3.14,13.09,13.09,0,0,0-2.29-2,8.27,8.27,0,0,0-3.72-.72H425.4a6.17,6.17,0,0,0-2.93.72,10.25,10.25,0,0,0-2.5,1.85,12.39,12.39,0,0,0-1.93,2.5,6.94,6.94,0,0,0-.93,2.51v80.43H406.26v-81a14.65,14.65,0,0,1,1.5-6.5,20,20,0,0,1,4.07-5.57,20.38,20.38,0,0,1,5.93-4,21.34,21.34,0,0,1,7.07-1.79l2.28-.14a17.1,17.1,0,0,1,3.65.36,25.6,25.6,0,0,1,3.21.93,10.49,10.49,0,0,1,3.22,1.57,22.73,22.73,0,0,1,3.07,2.57,23.87,23.87,0,0,1,2.5,2.93,12.38,12.38,0,0,1,1.5,2.64,6.85,6.85,0,0,1,.86,1.86l34.28,72a13.36,13.36,0,0,0,1,1.85c.48.77,1,1.14,1.58,1.14h.85a3.06,3.06,0,0,0,1.36-1.28c.43-.67.69-1.1.79-1.29l.14-.42,34.43-72a44.24,44.24,0,0,1,3.64-5.93,15.67,15.67,0,0,1,5.5-4.78,18,18,0,0,1,4.07-1.58,18.63,18.63,0,0,1,4.65-.57l2.28.14a14.81,14.81,0,0,1,6.72,1.65,23.43,23.43,0,0,1,5.86,4.14,22.45,22.45,0,0,1,4.21,5.64,15,15,0,0,1,1.79,6.15v81.29Z"/><path d="M632,196.52a39,39,0,0,1-15.78-3.21,41.23,41.23,0,0,1-21.58-21.58A39,39,0,0,1,591.41,156V138.09a39.26,39.26,0,0,1,3.21-15.72,41,41,0,0,1,21.58-21.64A39,39,0,0,1,632,97.51h73.44a39.59,39.59,0,0,1,15.86,3.22,40.73,40.73,0,0,1,21.64,21.64,39.26,39.26,0,0,1,3.21,15.72V156a39,39,0,0,1-3.21,15.78,41,41,0,0,1-21.64,21.58,39.58,39.58,0,0,1-15.86,3.21Zm-29.71-58.43V156a28.11,28.11,0,0,0,2.36,11.5,30.64,30.64,0,0,0,15.85,15.86,28.27,28.27,0,0,0,11.5,2.35h73.44A28.77,28.77,0,0,0,717,183.31a30.51,30.51,0,0,0,15.93-15.86,28.27,28.27,0,0,0,2.36-11.5V138.09a28.27,28.27,0,0,0-2.36-11.5,30.71,30.71,0,0,0-6.43-9.43,30.27,30.27,0,0,0-9.5-6.43,28.78,28.78,0,0,0-11.57-2.36H632a28.27,28.27,0,0,0-11.5,2.36,30.64,30.64,0,0,0-15.85,15.86A28.11,28.11,0,0,0,602.27,138.09Z"/><path d="M774,97.51h97a39,39,0,0,1,15.78,3.22,40.73,40.73,0,0,1,12.86,8.79,42.34,42.34,0,0,1,8.72,12.93,38.67,38.67,0,0,1,3.21,15.64V156a39,39,0,0,1-3.21,15.78,41,41,0,0,1-8.79,12.86,42.59,42.59,0,0,1-12.93,8.72A38.71,38.71,0,0,1,871,196.52H774Zm126.72,40.3a27.88,27.88,0,0,0-2.35-11.36,30,30,0,0,0-6.43-9.36,31.18,31.18,0,0,0-9.5-6.36A28.46,28.46,0,0,0,871,108.37H784.85v77.29h86.43a27.92,27.92,0,0,0,11.36-2.35,30.1,30.1,0,0,0,9.36-6.43,31.72,31.72,0,0,0,6.36-9.43,28.27,28.27,0,0,0,2.35-11.5Z"/><path d="M968.43,196.52a39.07,39.07,0,0,1-15.79-3.21,41.5,41.5,0,0,1-12.85-8.72,41,41,0,0,1-8.72-12.93,39.5,39.5,0,0,1-3.21-15.85V97.51h10.86v58.3a28.34,28.34,0,0,0,2.35,11.42,30.71,30.71,0,0,0,15.72,16,27,27,0,0,0,11.36,2.43h73.43V97.51h10.86v99Z"/><path d="M1097.72,97.51v58.3a29.41,29.41,0,0,0,2.29,11.64,28.35,28.35,0,0,0,6.43,9.36,31.13,31.13,0,0,0,9.5,6.5,28.23,28.23,0,0,0,11.5,2.35h83.43v10.86h-83.43a39,39,0,0,1-15.78-3.21,41.84,41.84,0,0,1-12.93-8.79,41.14,41.14,0,0,1-8.65-12.79,39.35,39.35,0,0,1-3.21-15.92V97.51Z"/><path d="M1249.3,196.52a32.37,32.37,0,0,1-17.57-4.93,29.45,29.45,0,0,1-11.57-13.36,28,28,0,0,1-2.57-11.85,28.4,28.4,0,0,1,2.5-11.93,30.52,30.52,0,0,1,6.79-9.58,32.47,32.47,0,0,1,9.93-6.43,30.61,30.61,0,0,1,11.92-2.35h85.15v-6.72a19.88,19.88,0,0,0-1.71-8.14,20.67,20.67,0,0,0-4.64-6.64,24.13,24.13,0,0,0-6.72-4.5,19.27,19.27,0,0,0-8.07-1.72h-71.86V97.51h71.86a31.65,31.65,0,0,1,22.57,9.36,34.16,34.16,0,0,1,6.86,10.15,30.09,30.09,0,0,1,2.57,12.35v67.29Zm-11.71-46.14a20,20,0,0,0-6.71,6.85,18.52,18.52,0,0,0-.79,16.79,19.25,19.25,0,0,0,4.43,6.07,21.38,21.38,0,0,0,6.43,4.07,20.19,20.19,0,0,0,7.78,1.5h85.15V147H1249.3a21.39,21.39,0,0,0-6.28.92A22.15,22.15,0,0,0,1237.59,150.38Z"/><path d="M1381.17,196.52V138.09a39.26,39.26,0,0,1,3.21-15.72A41,41,0,0,1,1406,100.73a39,39,0,0,1,15.78-3.22h73.43v10.86h-73.43a28.24,28.24,0,0,0-11.5,2.36,30.7,30.7,0,0,0-15.86,15.86,28.27,28.27,0,0,0-2.36,11.5v58.43Z"/></g></g></svg>