<?xml version="1.0" standalone="no"?>
<!DOCTYPE svg PUBLIC "-//W3C//DTD SVG 20010904//EN"
 "http://www.w3.org/TR/2001/REC-SVG-20010904/DTD/svg10.dtd">
<svg version="1.0" xmlns="http://www.w3.org/2000/svg"
 width="1516.000000pt" height="1516.000000pt" viewBox="0 0 1516.000000 1516.000000"
 preserveAspectRatio="xMidYMid meet">
<metadata>
Created by potrace 1.11, written by Peter Selinger 2001-2013
</metadata>
<g transform="translate(0.000000,1516.000000) scale(0.100000,-0.100000)"
fill="#000000" stroke="none">
<path d="M10 11505 c0 -3 1765 -1771 3923 -3930 l3923 -3925 1337 0 1338 0
-3928 3930 -3928 3930 -1332 0 c-733 0 -1333 -2 -1333 -5z"/>
<path d="M5374 10564 l945 -946 1403 0 c772 0 1419 1 1438 1 l35 1 0 942 -1
943 -2383 3 -2383 2 946 -946z"/>
<path d="M9314 10565 c0 -847 2 -945 15 -946 9 0 899 -1 1978 -1 l1962 0 0
-2038 0 -2037 -2207 -1 c-1214 0 -2217 -1 -2229 -1 -16 -1 216 -239 923 -946
l944 -945 2230 0 2230 0 0 3930 0 3930 -2923 0 -2923 0 0 -945z"/>
<path d="M7307 9492 c-2 -4 -4 -556 -3 -1227 l1 -1220 208 -207 208 -206 733
0 c677 0 734 1 738 16 2 10 3 654 3 1432 l-1 1415 -942 2 c-518 1 -943 -1
-945 -5z"/>
<path d="M1347 5540 c-9 -4 -12 -218 -12 -948 l0 -942 2399 0 c2230 0 2397 1
2385 17 -44 52 -1873 1873 -1882 1874 -63 3 -2881 3 -2890 -1z"/>
</g>
</svg>
