<svg xmlns="http://www.w3.org/2000/svg" viewBox="0 0 266.82 185.18"><defs><style>.cls-1{isolation:isolate;}.cls-2{fill:#b3b3b3;}.cls-3{fill:#00a408;stroke:#00b32b;stroke-miterlimit:10;}.cls-4{fill:#14201f;}.cls-5{fill:#141a2a;}.cls-6{fill:#f15a24;}.cls-7{fill:#efe2ea;}.cls-8{fill:#e6a03e;}.cls-9{fill:#10a2a9;}.cls-10,.cls-11{fill:#333;}.cls-11{opacity:0.4;mix-blend-mode:multiply;}.cls-12{fill:#3e3e3c;}.cls-13{fill:#1a1a1a;}.cls-14{fill:#e6e6e6;}.cls-15{fill:#fff;}.cls-16{fill:#37ce00;}</style></defs><title>Asset 2torc32</title><g class="cls-1"><g id="Layer_2" data-name="Layer 2"><g id="Layer_1-2" data-name="Layer 1"><path class="cls-2" d="M76.29,185.18h141a49.49,49.49,0,0,0,49.49-49.5V18.86L250.75,0H211.69L124.54,5.06,83.2,17.73,59.6,23,33.55,39.87v19.5L3.18,92.2Z"/><path class="cls-3" d="M44.65,17.73H81.73l-.06,13.12v57H68.53S66.33,75.55,50,75.55,30.51,92.2,30.51,92.2H3.18V61.72Z"/><polygon class="cls-4" points="77.48 23.05 77.48 42.49 48.09 42.49 46.21 44.92 23.3 44.92 43.65 23.08 77.48 23.05"/><path class="cls-5" d="M60.27,52.06a2,2,0,0,0,2,2H70a2,2,0,0,0,2-2h0a2,2,0,0,0-2-2H62.3a2,2,0,0,0-2,2Z"/><path class="cls-6" d="M2.72,75.43H14.52a2.73,2.73,0,0,1,2.73,2.73V84.4a2.72,2.72,0,0,1-2.72,2.72H2.73A2.73,2.73,0,0,1,0,84.4V78.15A2.72,2.72,0,0,1,2.72,75.43Z"/><path class="cls-7" d="M4,70.3V65.21a2.72,2.72,0,0,1,2.72-2.72H18.53a2.72,2.72,0,0,1,2.73,2.72V70.3a50.46,50.46,0,0,0-8.63-.76A50.23,50.23,0,0,0,4,70.3Z"/><path class="cls-8" d="M18.53,74.18H6.74A2.72,2.72,0,0,1,4,71.46V70.3a50.23,50.23,0,0,1,8.61-.76,50.46,50.46,0,0,1,8.63.76v1.16A2.72,2.72,0,0,1,18.53,74.18Z"/><path class="cls-9" d="M47.38,29.91a5.43,5.43,0,0,0,5.43,5.43H68.54A5.43,5.43,0,0,0,74,29.91h0a5.44,5.44,0,0,0-5.43-5.43H52.81a5.44,5.44,0,0,0-5.43,5.43Z"/><path class="cls-6" d="M3,78.88A1.62,1.62,0,0,0,4.61,80.5H23.48a1.62,1.62,0,0,0,1.61-1.62h0a1.62,1.62,0,0,0-1.61-1.62H4.61A1.62,1.62,0,0,0,3,78.88Z"/><path class="cls-6" d="M29.23,71.24a1.34,1.34,0,0,0,1.34,1.35H77.3a1.34,1.34,0,0,0,1.34-1.35h0a1.35,1.35,0,0,0-1.34-1.35H30.57a1.35,1.35,0,0,0-1.34,1.35Z"/><path class="cls-10" d="M83.2,66.83H209.29V87.28H206.9a28.9,28.9,0,0,1,.59,4.3h-8a21,21,0,0,0-41.78,0h-8a29.46,29.46,0,0,1,.54-4h-67Z"/><path class="cls-11" d="M211.69,0H201.16c-4.8,12.19-24.09,51-79.4,64.89h89.93Z"/><path class="cls-10" d="M201.16,0H83.2V64.89h38.56C177.07,51,196.36,12.19,201.16,0Z"/><path class="cls-12" d="M178.84,74.7A17.31,17.31,0,0,0,161.55,92c0,.05,0,.1,0,.15a17.28,17.28,0,0,0,34.56,0V92A17.31,17.31,0,0,0,178.84,74.7Z"/><path class="cls-13" d="M178.84,104.65A12.71,12.71,0,0,1,166.17,92.1V92a12.67,12.67,0,1,1,25.34,0v.11A12.7,12.7,0,0,1,178.84,104.65ZM167,92.09a11.93,11.93,0,0,0,11.89,11.79,11.77,11.77,0,0,0,11.89-11.59l.39.08h-.39a11.9,11.9,0,1,0-23.79-.29l-.38.07Z"/><path class="cls-14" d="M187.6,92a8.77,8.77,0,1,1-8.76-8.77A8.76,8.76,0,0,1,187.6,92Z"/><path class="cls-12" d="M50.84,74.7A17.31,17.31,0,0,0,33.55,92c0,.05,0,.1,0,.15a17.28,17.28,0,0,0,34.56,0V92A17.31,17.31,0,0,0,50.84,74.7Z"/><path class="cls-13" d="M50.84,104.65A12.71,12.71,0,0,1,38.17,92.1V92a12.67,12.67,0,0,1,25.34,0v.11A12.7,12.7,0,0,1,50.84,104.65ZM39,92.09a11.93,11.93,0,0,0,11.89,11.79A11.77,11.77,0,0,0,62.73,92.29l.39.08h-.39a11.9,11.9,0,1,0-23.79-.29l-.38.07Z"/><path class="cls-14" d="M59.6,92a8.77,8.77,0,1,1-8.76-8.77A8.76,8.76,0,0,1,59.6,92Z"/><path class="cls-15" d="M125.3,14.78a15.45,15.45,0,0,1,2.3-.17,4.81,4.81,0,0,1,3.39,1,3.84,3.84,0,0,1,1.18,3,4.43,4.43,0,0,1-1.2,3.25,5.15,5.15,0,0,1-3.7,1.21,18,18,0,0,1-2-.1Zm1.08,7.41a6.9,6.9,0,0,0,1.1.06A3.21,3.21,0,0,0,131,18.7c0-2-1.1-3.23-3.39-3.23a5.7,5.7,0,0,0-1.27.11Z"/><path class="cls-15" d="M137.91,19.12h-3.26v3h3.63V23h-4.71V14.67h4.52v.91h-3.44v2.64h3.26Z"/><path class="cls-15" d="M139.68,14.67h1.08v7.47h3.58V23h-4.66Z"/><path class="cls-15" d="M146.62,14.67V23h-1.08V14.67Z"/><path class="cls-15" d="M150.35,23l-2.73-8.37h1.16l1.31,4.12c.36,1.13.67,2.15.89,3.13h0c.23-1,.58-2,1-3.11l1.42-4.14h1.15l-3,8.37Z"/><path class="cls-15" d="M159.77,19.12h-3.25v3h3.63V23h-4.71V14.67H160v.91h-3.44v2.64h3.25Z"/><path class="cls-15" d="M161.55,14.78a11.38,11.38,0,0,1,2.07-.17,3.42,3.42,0,0,1,2.42.68,2.06,2.06,0,0,1,.66,1.59A2.19,2.19,0,0,1,165.12,19v0a2.09,2.09,0,0,1,1.23,1.7A14.25,14.25,0,0,0,167,23h-1.12a11.42,11.42,0,0,1-.56-2c-.24-1.15-.69-1.59-1.67-1.62h-1V23h-1.08Zm1.08,3.82h1.1c1.16,0,1.89-.64,1.89-1.59s-.78-1.56-1.92-1.57a4.36,4.36,0,0,0-1.07.1Z"/><path class="cls-15" d="M170,23V19.49l-2.64-4.82h1.23L169.72,17c.32.63.57,1.14.83,1.73h0c.23-.55.52-1.1.84-1.73l1.2-2.31h1.23l-2.8,4.81V23Z"/><line class="cls-15" x1="112.86" y1="27.05" x2="186.3" y2="27.05"/><rect class="cls-15" x="112.86" y="26.8" width="73.44" height="0.5"/><line class="cls-15" x1="112.86" y1="36.01" x2="186.3" y2="36.01"/><rect class="cls-15" x="112.86" y="35.76" width="73.44" height="0.5"/><line class="cls-15" x1="112.86" y1="44.96" x2="186.3" y2="44.96"/><rect class="cls-15" x="112.86" y="44.71" width="73.44" height="0.5"/><polygon class="cls-16" points="214.75 0 250.75 0 214.75 2.12 214.75 0"/><polygon class="cls-16" points="214.75 3.63 246 3.63 214.75 5.06 214.75 3.63"/><polygon class="cls-16" points="214.75 7.12 239.12 7.12 214.75 8.55 214.75 7.12"/></g></g></g></svg>