<svg xmlns="http://www.w3.org/2000/svg" viewBox="0 0 379.47 196.66"><defs><style>.cls-1{fill:#92d050;}</style></defs><title>Asset 3torc32</title><g id="Layer_2" data-name="Layer 2"><g id="Layer_1-2" data-name="Layer 1"><polygon points="106.32 149.33 153.65 196.66 33.47 196.66 33.47 149.33 106.32 149.33"/><polygon points="230.14 0 230.14 47.33 158.17 47.33 110.84 0 230.14 0"/><polygon class="cls-1" points="230.14 50.33 230.14 122.06 193.24 122.06 182.8 111.62 182.8 50.33 230.14 50.33"/><polygon class="cls-1" points="379.47 0 379.47 0 233.14 0 233.14 47.33 332.14 47.33 332.14 149.33 220.51 149.33 232.26 161.08 265.72 194.54 267.84 196.66 332.14 196.66 332.14 196.66 379.47 196.66 379.47 0 379.47 0"/><polygon points="263.6 196.66 196.66 196.66 182.8 182.8 149.33 149.33 47.33 47.33 0 0 66.94 0 114.27 47.33 182.8 115.86 216.27 149.33 230.14 163.2 263.6 196.66"/></g></g></svg>