<svg xmlns="http://www.w3.org/2000/svg" viewBox="0 0 379.47 245.54"><defs><style>.cls-1{fill:#92d050;}</style></defs><title>Asset 1torc32</title><g id="Layer_2" data-name="Layer 2"><g id="Layer_1-2" data-name="Layer 1"><polygon points="106.32 149.33 153.65 196.66 33.47 196.66 33.47 149.33 106.32 149.33"/><polygon points="230.14 0 230.14 47.33 158.17 47.33 110.84 0 230.14 0"/><polygon class="cls-1" points="230.14 50.33 230.14 122.06 193.24 122.06 182.8 111.62 182.8 50.33 230.14 50.33"/><polygon class="cls-1" points="379.47 0 379.47 0 233.14 0 233.14 47.33 332.14 47.33 332.14 149.33 220.51 149.33 232.26 161.08 265.72 194.54 267.84 196.66 332.14 196.66 332.14 196.66 379.47 196.66 379.47 0 379.47 0"/><polygon points="263.6 196.66 196.66 196.66 182.8 182.8 149.33 149.33 47.33 47.33 0 0 66.94 0 114.27 47.33 182.8 115.86 216.27 149.33 230.14 163.2 263.6 196.66"/><path d="M73.42,245.45v-25.9a1.88,1.88,0,0,0-.28-1,2.59,2.59,0,0,0-.69-.78,2.67,2.67,0,0,0-.87-.48,2.5,2.5,0,0,0-.83-.17h-.41a3.42,3.42,0,0,0-1.45.37,2.46,2.46,0,0,0-1.17,1.43l-1.38,2.94c-.34.74-.78,1.67-1.31,2.79s-1.2,2.49-2,4.14l-2.76,5.77q-1.59,3.31-3.66,7.68A7.77,7.77,0,0,1,55,244.62a2.86,2.86,0,0,1-2.09.88h-.74a3.48,3.48,0,0,1-2.3-.79,7.59,7.59,0,0,1-1.61-2.43L37.22,219a6.11,6.11,0,0,0-.6-1,4,4,0,0,0-.74-.65,2.68,2.68,0,0,0-1.19-.23h-.55a2.05,2.05,0,0,0-1,.23,3.56,3.56,0,0,0-.8.6,4,4,0,0,0-.62.81,2.15,2.15,0,0,0-.3.8v25.9H28V219.37a4.59,4.59,0,0,1,.49-2.09,6.29,6.29,0,0,1,1.31-1.8,6.69,6.69,0,0,1,1.91-1.29,6.77,6.77,0,0,1,2.27-.57l.74-.05a5.26,5.26,0,0,1,1.17.12,6.47,6.47,0,0,1,1,.3,3.48,3.48,0,0,1,1,.5,7.77,7.77,0,0,1,1,.83,7.65,7.65,0,0,1,.81.94,4.05,4.05,0,0,1,.48.85,2.3,2.3,0,0,1,.27.6l11,23.19a4.33,4.33,0,0,0,.33.59c.15.25.32.37.5.37h.28a1,1,0,0,0,.44-.41c.13-.22.22-.35.25-.42l0-.13,11.09-23.19a15.15,15.15,0,0,1,1.17-1.91,5.12,5.12,0,0,1,1.77-1.54,5.92,5.92,0,0,1,1.32-.5,5.58,5.58,0,0,1,1.49-.19l.74.05a4.72,4.72,0,0,1,2.16.53A7.61,7.61,0,0,1,75,215.48a6.87,6.87,0,0,1,1.36,1.82,4.76,4.76,0,0,1,.58,2v26.17Z"/><path d="M100.65,245.5a12.55,12.55,0,0,1-5.08-1,13.33,13.33,0,0,1-4.14-2.8,13.53,13.53,0,0,1-2.81-4.15,12.5,12.5,0,0,1-1-5.08v-5.75a12.62,12.62,0,0,1,1-5.06,13.26,13.26,0,0,1,6.95-7,12.54,12.54,0,0,1,5.08-1H124.3a12.67,12.67,0,0,1,5.1,1,13.11,13.11,0,0,1,7,7,12.62,12.62,0,0,1,1,5.06v5.75a12.51,12.51,0,0,1-1,5.08,13.5,13.5,0,0,1-2.8,4.15,13.35,13.35,0,0,1-4.17,2.8,12.68,12.68,0,0,1-5.1,1Zm-9.57-18.82v5.75a9.14,9.14,0,0,0,.76,3.7A9.86,9.86,0,0,0,97,241.24a9,9,0,0,0,3.7.76H124.3a9.17,9.17,0,0,0,3.72-.76,9.68,9.68,0,0,0,3.06-2.07,9.54,9.54,0,0,0,2.07-3,9,9,0,0,0,.76-3.7v-5.75a9,9,0,0,0-.76-3.7,9.8,9.8,0,0,0-5.13-5.11,9.34,9.34,0,0,0-3.72-.76H100.65a9.17,9.17,0,0,0-3.7.76A9.86,9.86,0,0,0,91.84,223,9.17,9.17,0,0,0,91.08,226.68Z"/><path d="M146.38,213.62h31.23a12.54,12.54,0,0,1,5.08,1,13.25,13.25,0,0,1,4.14,2.83,13.74,13.74,0,0,1,2.81,4.17,12.4,12.4,0,0,1,1,5v5.75a12.5,12.5,0,0,1-1,5.08,13.24,13.24,0,0,1-2.83,4.15,13.66,13.66,0,0,1-4.16,2.8,12.46,12.46,0,0,1-5,1H146.38Zm40.8,13a9.09,9.09,0,0,0-.76-3.66,9.74,9.74,0,0,0-2.07-3,10.21,10.21,0,0,0-3.06-2,9.25,9.25,0,0,0-3.68-.76H149.87V242H177.7a8.92,8.92,0,0,0,3.66-.76,9.57,9.57,0,0,0,3-2.07,10,10,0,0,0,2-3,9.14,9.14,0,0,0,.76-3.7Z"/><path d="M209,245.5a12.55,12.55,0,0,1-5.08-1,13.16,13.16,0,0,1-7-7,12.67,12.67,0,0,1-1-5.1V213.62h3.49v18.77a9.29,9.29,0,0,0,.76,3.68,10.21,10.21,0,0,0,2.05,3.06,10,10,0,0,0,3,2.09,8.78,8.78,0,0,0,3.66.78h23.64V213.62H236V245.5Z"/><path d="M250.61,213.62v18.77a9.39,9.39,0,0,0,.74,3.74,9,9,0,0,0,2.07,3,9.85,9.85,0,0,0,3.06,2.09,9,9,0,0,0,3.7.76H287v3.5H260.18a12.55,12.55,0,0,1-5.08-1,13.44,13.44,0,0,1-4.17-2.83,13.3,13.3,0,0,1-2.78-4.12,12.59,12.59,0,0,1-1-5.12V213.62Z"/><path d="M299.42,245.5a10.42,10.42,0,0,1-5.66-1.59,9.5,9.5,0,0,1-3.73-4.3,9.46,9.46,0,0,1,0-7.66,9.82,9.82,0,0,1,2.19-3.08,10.2,10.2,0,0,1,3.19-2.07,9.78,9.78,0,0,1,3.84-.76h27.42v-2.16a6.39,6.39,0,0,0-.55-2.63,6.62,6.62,0,0,0-1.5-2.13,7.59,7.59,0,0,0-2.16-1.45,6.2,6.2,0,0,0-2.6-.56H296.7v-3.49h23.14a10.18,10.18,0,0,1,7.27,3,11.22,11.22,0,0,1,2.21,3.27,9.72,9.72,0,0,1,.83,4v21.66Zm-3.77-14.86a6.46,6.46,0,0,0-2.17,2.21,6,6,0,0,0-.25,5.4,6.31,6.31,0,0,0,1.43,2,6.69,6.69,0,0,0,2.07,1.31,6.51,6.51,0,0,0,2.5.48h27.42V229.53H299.42a6.83,6.83,0,0,0-2,.3A7,7,0,0,0,295.65,230.64Z"/><path d="M341.87,245.5V226.68a12.62,12.62,0,0,1,1-5.06,13.17,13.17,0,0,1,2.81-4.16,13.36,13.36,0,0,1,4.14-2.81,12.5,12.5,0,0,1,5.08-1h23.64v3.49H354.94a9.17,9.17,0,0,0-3.7.76,9.87,9.87,0,0,0-3,2.07,10.11,10.11,0,0,0-2.07,3,9,9,0,0,0-.76,3.7V245.5Z"/></g></g></svg>